<mxfile host="Electron" agent="Mozilla/5.0 (Windows NT 10.0; Win64; x64) AppleWebKit/537.36 (KHTML, like Gecko) draw.io/26.0.9 Chrome/128.0.6613.186 Electron/32.2.5 Safari/537.36" version="26.0.9">
  <diagram id="R2lEEEUBdFMjLlhIrx00" name="Page-1">
    <mxGraphModel dx="2868" dy="1672" grid="1" gridSize="10" guides="1" tooltips="1" connect="1" arrows="1" fold="1" page="1" pageScale="1" pageWidth="850" pageHeight="1100" math="0" shadow="0" extFonts="Permanent Marker^https://fonts.googleapis.com/css?family=Permanent+Marker">
      <root>
        <mxCell id="0" />
        <mxCell id="1" parent="0" />
        <mxCell id="jOvR67uO5jXxXAHMJat0-1" value="username" style="ellipse;whiteSpace=wrap;html=1;align=center;fontFamily=Comic Sans MS;" parent="1" vertex="1">
          <mxGeometry x="740" y="600" width="80" height="40" as="geometry" />
        </mxCell>
        <mxCell id="jOvR67uO5jXxXAHMJat0-2" value="Entity" style="shape=ext;margin=3;double=1;whiteSpace=wrap;html=1;align=center;fontFamily=Comic Sans MS;fontStyle=1" parent="1" vertex="1">
          <mxGeometry x="195" y="40" width="100" height="40" as="geometry" />
        </mxCell>
        <mxCell id="jOvR67uO5jXxXAHMJat0-3" value="User" style="rounded=1;arcSize=10;whiteSpace=wrap;html=1;align=center;fontFamily=Comic Sans MS;fontStyle=1" parent="1" vertex="1">
          <mxGeometry x="640" y="520" width="100" height="40" as="geometry" />
        </mxCell>
        <mxCell id="jOvR67uO5jXxXAHMJat0-4" value="id" style="ellipse;whiteSpace=wrap;html=1;align=center;fontStyle=4;fontFamily=Comic Sans MS;" parent="1" vertex="1">
          <mxGeometry x="520" y="470" width="80" height="40" as="geometry" />
        </mxCell>
        <mxCell id="jOvR67uO5jXxXAHMJat0-5" value="submission_age" style="ellipse;whiteSpace=wrap;html=1;align=center;dashed=1;fontFamily=Comic Sans MS;" parent="1" vertex="1">
          <mxGeometry x="380" y="600" width="140" height="40" as="geometry" />
        </mxCell>
        <mxCell id="jOvR67uO5jXxXAHMJat0-6" value="phone" style="ellipse;shape=doubleEllipse;margin=3;whiteSpace=wrap;html=1;align=center;fontFamily=Comic Sans MS;" parent="1" vertex="1">
          <mxGeometry x="540" y="670" width="100" height="40" as="geometry" />
        </mxCell>
        <mxCell id="jOvR67uO5jXxXAHMJat0-7" value="email" style="ellipse;whiteSpace=wrap;html=1;align=center;fontFamily=Comic Sans MS;" parent="1" vertex="1">
          <mxGeometry x="560" y="420" width="80" height="40" as="geometry" />
        </mxCell>
        <mxCell id="jOvR67uO5jXxXAHMJat0-9" value="roles" style="ellipse;shape=doubleEllipse;margin=3;whiteSpace=wrap;html=1;align=center;fontFamily=Comic Sans MS;" parent="1" vertex="1">
          <mxGeometry x="530" y="600" width="100" height="40" as="geometry" />
        </mxCell>
        <mxCell id="jOvR67uO5jXxXAHMJat0-10" value="contact_info" style="ellipse;whiteSpace=wrap;html=1;align=center;fontFamily=Comic Sans MS;" parent="1" vertex="1">
          <mxGeometry x="640" y="610" width="100" height="40" as="geometry" />
        </mxCell>
        <mxCell id="jOvR67uO5jXxXAHMJat0-11" value="address" style="ellipse;whiteSpace=wrap;html=1;align=center;fontFamily=Comic Sans MS;" parent="1" vertex="1">
          <mxGeometry x="660" y="680" width="100" height="40" as="geometry" />
        </mxCell>
        <mxCell id="jOvR67uO5jXxXAHMJat0-12" value="province" style="ellipse;whiteSpace=wrap;html=1;align=center;fontFamily=Comic Sans MS;" parent="1" vertex="1">
          <mxGeometry x="530" y="740" width="100" height="40" as="geometry" />
        </mxCell>
        <mxCell id="jOvR67uO5jXxXAHMJat0-13" value="city" style="ellipse;whiteSpace=wrap;html=1;align=center;fontFamily=Comic Sans MS;" parent="1" vertex="1">
          <mxGeometry x="640" y="740" width="100" height="40" as="geometry" />
        </mxCell>
        <mxCell id="jOvR67uO5jXxXAHMJat0-14" value="postal_code" style="ellipse;whiteSpace=wrap;html=1;align=center;fontFamily=Comic Sans MS;" parent="1" vertex="1">
          <mxGeometry x="750" y="740" width="100" height="40" as="geometry" />
        </mxCell>
        <mxCell id="jOvR67uO5jXxXAHMJat0-15" value="" style="endArrow=none;html=1;rounded=0;exitX=0.5;exitY=0;exitDx=0;exitDy=0;entryX=0;entryY=1;entryDx=0;entryDy=0;" parent="1" source="jOvR67uO5jXxXAHMJat0-12" target="jOvR67uO5jXxXAHMJat0-11" edge="1">
          <mxGeometry relative="1" as="geometry">
            <mxPoint x="680" y="670" as="sourcePoint" />
            <mxPoint x="840" y="670" as="targetPoint" />
          </mxGeometry>
        </mxCell>
        <mxCell id="jOvR67uO5jXxXAHMJat0-16" value="" style="endArrow=none;html=1;rounded=0;exitX=0.5;exitY=0;exitDx=0;exitDy=0;entryX=0.5;entryY=1;entryDx=0;entryDy=0;" parent="1" source="jOvR67uO5jXxXAHMJat0-13" target="jOvR67uO5jXxXAHMJat0-11" edge="1">
          <mxGeometry relative="1" as="geometry">
            <mxPoint x="800" y="760" as="sourcePoint" />
            <mxPoint x="960" y="760" as="targetPoint" />
          </mxGeometry>
        </mxCell>
        <mxCell id="jOvR67uO5jXxXAHMJat0-17" value="" style="endArrow=none;html=1;rounded=0;exitX=1;exitY=1;exitDx=0;exitDy=0;entryX=0.5;entryY=0;entryDx=0;entryDy=0;" parent="1" source="jOvR67uO5jXxXAHMJat0-11" target="jOvR67uO5jXxXAHMJat0-14" edge="1">
          <mxGeometry relative="1" as="geometry">
            <mxPoint x="680" y="670" as="sourcePoint" />
            <mxPoint x="840" y="670" as="targetPoint" />
          </mxGeometry>
        </mxCell>
        <mxCell id="jOvR67uO5jXxXAHMJat0-20" value="" style="endArrow=none;html=1;rounded=0;exitX=0.5;exitY=0;exitDx=0;exitDy=0;entryX=0;entryY=1;entryDx=0;entryDy=0;" parent="1" source="jOvR67uO5jXxXAHMJat0-6" target="jOvR67uO5jXxXAHMJat0-10" edge="1">
          <mxGeometry relative="1" as="geometry">
            <mxPoint x="650" y="680" as="sourcePoint" />
            <mxPoint x="810" y="680" as="targetPoint" />
          </mxGeometry>
        </mxCell>
        <mxCell id="jOvR67uO5jXxXAHMJat0-21" value="" style="endArrow=none;html=1;rounded=0;entryX=0.5;entryY=1;entryDx=0;entryDy=0;exitX=0.5;exitY=0;exitDx=0;exitDy=0;" parent="1" source="jOvR67uO5jXxXAHMJat0-11" target="jOvR67uO5jXxXAHMJat0-10" edge="1">
          <mxGeometry relative="1" as="geometry">
            <mxPoint x="650" y="680" as="sourcePoint" />
            <mxPoint x="810" y="680" as="targetPoint" />
          </mxGeometry>
        </mxCell>
        <mxCell id="jOvR67uO5jXxXAHMJat0-22" value="" style="endArrow=none;html=1;rounded=0;exitX=1;exitY=0;exitDx=0;exitDy=0;entryX=0.5;entryY=1;entryDx=0;entryDy=0;" parent="1" source="jOvR67uO5jXxXAHMJat0-9" target="jOvR67uO5jXxXAHMJat0-3" edge="1">
          <mxGeometry relative="1" as="geometry">
            <mxPoint x="730" y="590" as="sourcePoint" />
            <mxPoint x="890" y="590" as="targetPoint" />
          </mxGeometry>
        </mxCell>
        <mxCell id="jOvR67uO5jXxXAHMJat0-23" value="" style="endArrow=none;html=1;rounded=0;exitX=1;exitY=0.5;exitDx=0;exitDy=0;entryX=0.25;entryY=0;entryDx=0;entryDy=0;" parent="1" source="jOvR67uO5jXxXAHMJat0-4" target="jOvR67uO5jXxXAHMJat0-3" edge="1">
          <mxGeometry relative="1" as="geometry">
            <mxPoint x="730" y="590" as="sourcePoint" />
            <mxPoint x="890" y="590" as="targetPoint" />
          </mxGeometry>
        </mxCell>
        <mxCell id="jOvR67uO5jXxXAHMJat0-25" value="" style="endArrow=none;html=1;rounded=0;exitX=0.5;exitY=1;exitDx=0;exitDy=0;entryX=0.5;entryY=0;entryDx=0;entryDy=0;" parent="1" source="jOvR67uO5jXxXAHMJat0-7" target="jOvR67uO5jXxXAHMJat0-3" edge="1">
          <mxGeometry relative="1" as="geometry">
            <mxPoint x="730" y="650" as="sourcePoint" />
            <mxPoint x="890" y="650" as="targetPoint" />
          </mxGeometry>
        </mxCell>
        <mxCell id="jOvR67uO5jXxXAHMJat0-26" value="" style="endArrow=none;html=1;rounded=0;exitX=0.5;exitY=1;exitDx=0;exitDy=0;" parent="1" source="jOvR67uO5jXxXAHMJat0-3" target="jOvR67uO5jXxXAHMJat0-10" edge="1">
          <mxGeometry relative="1" as="geometry">
            <mxPoint x="730" y="710" as="sourcePoint" />
            <mxPoint x="890" y="710" as="targetPoint" />
          </mxGeometry>
        </mxCell>
        <mxCell id="jOvR67uO5jXxXAHMJat0-27" value="" style="endArrow=none;html=1;rounded=0;exitX=0.75;exitY=1;exitDx=0;exitDy=0;entryX=0.5;entryY=0;entryDx=0;entryDy=0;" parent="1" source="jOvR67uO5jXxXAHMJat0-3" target="jOvR67uO5jXxXAHMJat0-1" edge="1">
          <mxGeometry relative="1" as="geometry">
            <mxPoint x="730" y="590" as="sourcePoint" />
            <mxPoint x="890" y="590" as="targetPoint" />
          </mxGeometry>
        </mxCell>
        <mxCell id="jOvR67uO5jXxXAHMJat0-28" value="is_active" style="ellipse;whiteSpace=wrap;html=1;align=center;fontFamily=Comic Sans MS;" parent="1" vertex="1">
          <mxGeometry x="805" y="430" width="90" height="40" as="geometry" />
        </mxCell>
        <mxCell id="jOvR67uO5jXxXAHMJat0-29" value="last_login" style="ellipse;whiteSpace=wrap;html=1;align=center;fontFamily=Comic Sans MS;" parent="1" vertex="1">
          <mxGeometry x="710" y="430" width="90" height="40" as="geometry" />
        </mxCell>
        <mxCell id="jOvR67uO5jXxXAHMJat0-30" value="" style="endArrow=none;html=1;rounded=0;exitX=0.75;exitY=0;exitDx=0;exitDy=0;entryX=0.5;entryY=1;entryDx=0;entryDy=0;" parent="1" source="jOvR67uO5jXxXAHMJat0-3" target="jOvR67uO5jXxXAHMJat0-29" edge="1">
          <mxGeometry relative="1" as="geometry">
            <mxPoint x="660" y="590" as="sourcePoint" />
            <mxPoint x="820" y="590" as="targetPoint" />
          </mxGeometry>
        </mxCell>
        <mxCell id="jOvR67uO5jXxXAHMJat0-31" value="" style="endArrow=none;html=1;rounded=0;entryX=0.5;entryY=1;entryDx=0;entryDy=0;exitX=1;exitY=0.25;exitDx=0;exitDy=0;" parent="1" source="jOvR67uO5jXxXAHMJat0-3" target="jOvR67uO5jXxXAHMJat0-28" edge="1">
          <mxGeometry relative="1" as="geometry">
            <mxPoint x="740" y="520" as="sourcePoint" />
            <mxPoint x="820" y="590" as="targetPoint" />
          </mxGeometry>
        </mxCell>
        <mxCell id="jOvR67uO5jXxXAHMJat0-32" value="password" style="ellipse;whiteSpace=wrap;html=1;align=center;fontFamily=Comic Sans MS;" parent="1" vertex="1">
          <mxGeometry x="640" y="400" width="90" height="40" as="geometry" />
        </mxCell>
        <mxCell id="jOvR67uO5jXxXAHMJat0-33" value="" style="endArrow=none;html=1;rounded=0;exitX=0.5;exitY=1;exitDx=0;exitDy=0;entryX=0.5;entryY=0;entryDx=0;entryDy=0;" parent="1" source="jOvR67uO5jXxXAHMJat0-32" target="jOvR67uO5jXxXAHMJat0-3" edge="1">
          <mxGeometry relative="1" as="geometry">
            <mxPoint x="610" y="590" as="sourcePoint" />
            <mxPoint x="770" y="590" as="targetPoint" />
          </mxGeometry>
        </mxCell>
        <mxCell id="jOvR67uO5jXxXAHMJat0-34" value="join_date" style="ellipse;whiteSpace=wrap;html=1;align=center;fontFamily=Comic Sans MS;" parent="1" vertex="1">
          <mxGeometry x="820" y="590" width="100" height="40" as="geometry" />
        </mxCell>
        <mxCell id="jOvR67uO5jXxXAHMJat0-35" value="" style="endArrow=none;html=1;rounded=0;entryX=0.5;entryY=0;entryDx=0;entryDy=0;exitX=0.75;exitY=1;exitDx=0;exitDy=0;" parent="1" source="jOvR67uO5jXxXAHMJat0-3" target="jOvR67uO5jXxXAHMJat0-34" edge="1">
          <mxGeometry relative="1" as="geometry">
            <mxPoint x="610" y="590" as="sourcePoint" />
            <mxPoint x="770" y="590" as="targetPoint" />
          </mxGeometry>
        </mxCell>
        <mxCell id="jOvR67uO5jXxXAHMJat0-36" value="" style="endArrow=none;html=1;rounded=0;exitX=0.5;exitY=0;exitDx=0;exitDy=0;entryX=0.25;entryY=1;entryDx=0;entryDy=0;" parent="1" source="jOvR67uO5jXxXAHMJat0-5" target="jOvR67uO5jXxXAHMJat0-3" edge="1">
          <mxGeometry relative="1" as="geometry">
            <mxPoint x="610" y="590" as="sourcePoint" />
            <mxPoint x="770" y="590" as="targetPoint" />
          </mxGeometry>
        </mxCell>
        <mxCell id="jOvR67uO5jXxXAHMJat0-37" value="Roles" style="rounded=1;arcSize=10;whiteSpace=wrap;html=1;align=center;fontFamily=Comic Sans MS;fontStyle=1" parent="1" vertex="1">
          <mxGeometry x="1290" y="280" width="100" height="40" as="geometry" />
        </mxCell>
        <mxCell id="jOvR67uO5jXxXAHMJat0-38" value="id" style="ellipse;whiteSpace=wrap;html=1;align=center;fontStyle=4;fontFamily=Comic Sans MS;" parent="1" vertex="1">
          <mxGeometry x="1170" y="220" width="80" height="40" as="geometry" />
        </mxCell>
        <mxCell id="jOvR67uO5jXxXAHMJat0-39" value="name" style="ellipse;whiteSpace=wrap;html=1;align=center;fontFamily=Comic Sans MS;" parent="1" vertex="1">
          <mxGeometry x="1240" y="190" width="80" height="40" as="geometry" />
        </mxCell>
        <mxCell id="jOvR67uO5jXxXAHMJat0-40" value="description" style="ellipse;whiteSpace=wrap;html=1;align=center;fontFamily=Comic Sans MS;" parent="1" vertex="1">
          <mxGeometry x="1340" y="190" width="90" height="40" as="geometry" />
        </mxCell>
        <mxCell id="jOvR67uO5jXxXAHMJat0-41" value="permissions" style="ellipse;whiteSpace=wrap;html=1;align=center;fontFamily=Comic Sans MS;" parent="1" vertex="1">
          <mxGeometry x="1430" y="210" width="90" height="40" as="geometry" />
        </mxCell>
        <mxCell id="jOvR67uO5jXxXAHMJat0-42" value="" style="endArrow=none;html=1;rounded=0;exitX=1;exitY=1;exitDx=0;exitDy=0;entryX=0.25;entryY=0;entryDx=0;entryDy=0;" parent="1" source="jOvR67uO5jXxXAHMJat0-38" target="jOvR67uO5jXxXAHMJat0-37" edge="1">
          <mxGeometry relative="1" as="geometry">
            <mxPoint x="1140" y="360" as="sourcePoint" />
            <mxPoint x="1300" y="360" as="targetPoint" />
          </mxGeometry>
        </mxCell>
        <mxCell id="jOvR67uO5jXxXAHMJat0-43" value="" style="endArrow=none;html=1;rounded=0;exitX=0.5;exitY=1;exitDx=0;exitDy=0;entryX=0.5;entryY=0;entryDx=0;entryDy=0;" parent="1" source="jOvR67uO5jXxXAHMJat0-39" target="jOvR67uO5jXxXAHMJat0-37" edge="1">
          <mxGeometry relative="1" as="geometry">
            <mxPoint x="1140" y="360" as="sourcePoint" />
            <mxPoint x="1300" y="360" as="targetPoint" />
          </mxGeometry>
        </mxCell>
        <mxCell id="jOvR67uO5jXxXAHMJat0-44" value="" style="endArrow=none;html=1;rounded=0;entryX=0.5;entryY=1;entryDx=0;entryDy=0;exitX=0.5;exitY=0;exitDx=0;exitDy=0;" parent="1" source="jOvR67uO5jXxXAHMJat0-37" target="jOvR67uO5jXxXAHMJat0-40" edge="1">
          <mxGeometry relative="1" as="geometry">
            <mxPoint x="1140" y="360" as="sourcePoint" />
            <mxPoint x="1300" y="360" as="targetPoint" />
          </mxGeometry>
        </mxCell>
        <mxCell id="jOvR67uO5jXxXAHMJat0-45" value="" style="endArrow=none;html=1;rounded=0;entryX=0;entryY=1;entryDx=0;entryDy=0;exitX=0.75;exitY=0;exitDx=0;exitDy=0;" parent="1" source="jOvR67uO5jXxXAHMJat0-37" target="jOvR67uO5jXxXAHMJat0-41" edge="1">
          <mxGeometry relative="1" as="geometry">
            <mxPoint x="1140" y="360" as="sourcePoint" />
            <mxPoint x="1300" y="360" as="targetPoint" />
          </mxGeometry>
        </mxCell>
        <mxCell id="jOvR67uO5jXxXAHMJat0-48" value="has" style="shape=rhombus;perimeter=rhombusPerimeter;whiteSpace=wrap;html=1;align=center;fontFamily=Comic Sans MS;fontStyle=1" parent="1" vertex="1">
          <mxGeometry x="335" y="30" width="100" height="60" as="geometry" />
        </mxCell>
        <mxCell id="GzMsUE32m4eeHW1KoEyY-1" value="Articles" style="rounded=1;arcSize=10;whiteSpace=wrap;html=1;align=center;fontFamily=Comic Sans MS;fontStyle=1" vertex="1" parent="1">
          <mxGeometry x="1180" y="720" width="100" height="40" as="geometry" />
        </mxCell>
        <mxCell id="GzMsUE32m4eeHW1KoEyY-2" value="category_id" style="ellipse;whiteSpace=wrap;html=1;align=center;fontFamily=Comic Sans MS;" vertex="1" parent="1">
          <mxGeometry x="1350" y="620" width="90" height="40" as="geometry" />
        </mxCell>
        <mxCell id="GzMsUE32m4eeHW1KoEyY-3" value="content" style="ellipse;whiteSpace=wrap;html=1;align=center;fontFamily=Comic Sans MS;" vertex="1" parent="1">
          <mxGeometry x="1250" y="610" width="90" height="40" as="geometry" />
        </mxCell>
        <mxCell id="GzMsUE32m4eeHW1KoEyY-4" value="title" style="ellipse;whiteSpace=wrap;html=1;align=center;fontFamily=Comic Sans MS;" vertex="1" parent="1">
          <mxGeometry x="1160" y="610" width="80" height="40" as="geometry" />
        </mxCell>
        <mxCell id="GzMsUE32m4eeHW1KoEyY-5" value="id" style="ellipse;whiteSpace=wrap;html=1;align=center;fontStyle=4;fontFamily=Comic Sans MS;" vertex="1" parent="1">
          <mxGeometry x="1070" y="620" width="80" height="40" as="geometry" />
        </mxCell>
        <mxCell id="GzMsUE32m4eeHW1KoEyY-6" value="tags" style="ellipse;shape=doubleEllipse;margin=3;whiteSpace=wrap;html=1;align=center;fontFamily=Comic Sans MS;" vertex="1" parent="1">
          <mxGeometry x="990" y="660" width="100" height="40" as="geometry" />
        </mxCell>
        <mxCell id="GzMsUE32m4eeHW1KoEyY-8" value="published_data" style="ellipse;whiteSpace=wrap;html=1;align=center;fontFamily=Comic Sans MS;" vertex="1" parent="1">
          <mxGeometry x="960" y="790" width="110" height="40" as="geometry" />
        </mxCell>
        <mxCell id="GzMsUE32m4eeHW1KoEyY-9" value="scheduled_data" style="ellipse;whiteSpace=wrap;html=1;align=center;fontFamily=Comic Sans MS;" vertex="1" parent="1">
          <mxGeometry x="1060" y="820" width="110" height="40" as="geometry" />
        </mxCell>
        <mxCell id="GzMsUE32m4eeHW1KoEyY-11" value="keyword" style="ellipse;whiteSpace=wrap;html=1;align=center;fontFamily=Comic Sans MS;" vertex="1" parent="1">
          <mxGeometry x="1010" y="900" width="110" height="40" as="geometry" />
        </mxCell>
        <mxCell id="GzMsUE32m4eeHW1KoEyY-12" value="read_time" style="ellipse;whiteSpace=wrap;html=1;align=center;fontFamily=Comic Sans MS;" vertex="1" parent="1">
          <mxGeometry x="1125" y="900" width="110" height="40" as="geometry" />
        </mxCell>
        <mxCell id="GzMsUE32m4eeHW1KoEyY-13" value="metadata" style="ellipse;whiteSpace=wrap;html=1;align=center;fontFamily=Comic Sans MS;" vertex="1" parent="1">
          <mxGeometry x="1180" y="830" width="100" height="40" as="geometry" />
        </mxCell>
        <mxCell id="GzMsUE32m4eeHW1KoEyY-14" value="description" style="ellipse;whiteSpace=wrap;html=1;align=center;fontFamily=Comic Sans MS;" vertex="1" parent="1">
          <mxGeometry x="1240" y="900" width="110" height="40" as="geometry" />
        </mxCell>
        <mxCell id="GzMsUE32m4eeHW1KoEyY-15" value="url" style="ellipse;whiteSpace=wrap;html=1;align=center;fontFamily=Comic Sans MS;" vertex="1" parent="1">
          <mxGeometry x="1355" y="900" width="75" height="40" as="geometry" />
        </mxCell>
        <mxCell id="GzMsUE32m4eeHW1KoEyY-16" value="" style="endArrow=none;html=1;rounded=0;exitX=0.5;exitY=0;exitDx=0;exitDy=0;entryX=0;entryY=1;entryDx=0;entryDy=0;" edge="1" parent="1" source="GzMsUE32m4eeHW1KoEyY-11" target="GzMsUE32m4eeHW1KoEyY-13">
          <mxGeometry relative="1" as="geometry">
            <mxPoint x="1200" y="720" as="sourcePoint" />
            <mxPoint x="1360" y="720" as="targetPoint" />
          </mxGeometry>
        </mxCell>
        <mxCell id="GzMsUE32m4eeHW1KoEyY-17" value="" style="endArrow=none;html=1;rounded=0;exitX=0.5;exitY=0;exitDx=0;exitDy=0;entryX=0.5;entryY=1;entryDx=0;entryDy=0;" edge="1" parent="1" source="GzMsUE32m4eeHW1KoEyY-12" target="GzMsUE32m4eeHW1KoEyY-13">
          <mxGeometry relative="1" as="geometry">
            <mxPoint x="1200" y="720" as="sourcePoint" />
            <mxPoint x="1360" y="720" as="targetPoint" />
          </mxGeometry>
        </mxCell>
        <mxCell id="GzMsUE32m4eeHW1KoEyY-18" value="" style="endArrow=none;html=1;rounded=0;exitX=0.5;exitY=1;exitDx=0;exitDy=0;entryX=0.5;entryY=0;entryDx=0;entryDy=0;" edge="1" parent="1" source="GzMsUE32m4eeHW1KoEyY-13" target="GzMsUE32m4eeHW1KoEyY-14">
          <mxGeometry relative="1" as="geometry">
            <mxPoint x="1200" y="720" as="sourcePoint" />
            <mxPoint x="1360" y="720" as="targetPoint" />
          </mxGeometry>
        </mxCell>
        <mxCell id="GzMsUE32m4eeHW1KoEyY-19" value="" style="endArrow=none;html=1;rounded=0;exitX=1;exitY=1;exitDx=0;exitDy=0;entryX=0.5;entryY=0;entryDx=0;entryDy=0;" edge="1" parent="1" source="GzMsUE32m4eeHW1KoEyY-13" target="GzMsUE32m4eeHW1KoEyY-15">
          <mxGeometry relative="1" as="geometry">
            <mxPoint x="1200" y="720" as="sourcePoint" />
            <mxPoint x="1360" y="720" as="targetPoint" />
          </mxGeometry>
        </mxCell>
        <mxCell id="GzMsUE32m4eeHW1KoEyY-20" value="updated_at" style="ellipse;whiteSpace=wrap;html=1;align=center;fontFamily=Comic Sans MS;" vertex="1" parent="1">
          <mxGeometry x="1290" y="820" width="110" height="40" as="geometry" />
        </mxCell>
        <mxCell id="GzMsUE32m4eeHW1KoEyY-21" value="created_at" style="ellipse;whiteSpace=wrap;html=1;align=center;fontFamily=Comic Sans MS;" vertex="1" parent="1">
          <mxGeometry x="1410" y="820" width="110" height="40" as="geometry" />
        </mxCell>
        <mxCell id="GzMsUE32m4eeHW1KoEyY-23" value="" style="endArrow=none;html=1;rounded=0;entryX=0.5;entryY=1;entryDx=0;entryDy=0;exitX=0.5;exitY=0;exitDx=0;exitDy=0;" edge="1" parent="1" source="GzMsUE32m4eeHW1KoEyY-13" target="GzMsUE32m4eeHW1KoEyY-1">
          <mxGeometry relative="1" as="geometry">
            <mxPoint x="1060" y="760" as="sourcePoint" />
            <mxPoint x="1220" y="760" as="targetPoint" />
          </mxGeometry>
        </mxCell>
        <mxCell id="GzMsUE32m4eeHW1KoEyY-24" value="" style="endArrow=none;html=1;rounded=0;entryX=0.5;entryY=1;entryDx=0;entryDy=0;exitX=0.5;exitY=0;exitDx=0;exitDy=0;" edge="1" parent="1" source="GzMsUE32m4eeHW1KoEyY-9" target="GzMsUE32m4eeHW1KoEyY-1">
          <mxGeometry relative="1" as="geometry">
            <mxPoint x="1160" y="800" as="sourcePoint" />
            <mxPoint x="1270" y="780" as="targetPoint" />
          </mxGeometry>
        </mxCell>
        <mxCell id="GzMsUE32m4eeHW1KoEyY-25" value="" style="endArrow=none;html=1;rounded=0;exitX=1;exitY=0;exitDx=0;exitDy=0;entryX=0.25;entryY=1;entryDx=0;entryDy=0;" edge="1" parent="1" source="GzMsUE32m4eeHW1KoEyY-8" target="GzMsUE32m4eeHW1KoEyY-1">
          <mxGeometry relative="1" as="geometry">
            <mxPoint x="1110" y="780" as="sourcePoint" />
            <mxPoint x="1270" y="780" as="targetPoint" />
          </mxGeometry>
        </mxCell>
        <mxCell id="GzMsUE32m4eeHW1KoEyY-28" value="" style="endArrow=none;html=1;rounded=0;entryX=0.5;entryY=0;entryDx=0;entryDy=0;exitX=0.5;exitY=1;exitDx=0;exitDy=0;" edge="1" parent="1" source="GzMsUE32m4eeHW1KoEyY-1" target="GzMsUE32m4eeHW1KoEyY-20">
          <mxGeometry relative="1" as="geometry">
            <mxPoint x="1110" y="780" as="sourcePoint" />
            <mxPoint x="1270" y="780" as="targetPoint" />
          </mxGeometry>
        </mxCell>
        <mxCell id="GzMsUE32m4eeHW1KoEyY-29" value="" style="endArrow=none;html=1;rounded=0;entryX=0;entryY=0;entryDx=0;entryDy=0;exitX=0.75;exitY=1;exitDx=0;exitDy=0;" edge="1" parent="1" source="GzMsUE32m4eeHW1KoEyY-1" target="GzMsUE32m4eeHW1KoEyY-21">
          <mxGeometry relative="1" as="geometry">
            <mxPoint x="1110" y="780" as="sourcePoint" />
            <mxPoint x="1270" y="780" as="targetPoint" />
          </mxGeometry>
        </mxCell>
        <mxCell id="GzMsUE32m4eeHW1KoEyY-30" value="" style="endArrow=none;html=1;rounded=0;exitX=0.5;exitY=1;exitDx=0;exitDy=0;entryX=0.25;entryY=0;entryDx=0;entryDy=0;" edge="1" parent="1" source="GzMsUE32m4eeHW1KoEyY-5" target="GzMsUE32m4eeHW1KoEyY-1">
          <mxGeometry relative="1" as="geometry">
            <mxPoint x="1110" y="780" as="sourcePoint" />
            <mxPoint x="1270" y="780" as="targetPoint" />
          </mxGeometry>
        </mxCell>
        <mxCell id="GzMsUE32m4eeHW1KoEyY-31" value="" style="endArrow=none;html=1;rounded=0;exitX=1;exitY=0.5;exitDx=0;exitDy=0;entryX=0.25;entryY=0;entryDx=0;entryDy=0;" edge="1" parent="1" source="GzMsUE32m4eeHW1KoEyY-6" target="GzMsUE32m4eeHW1KoEyY-1">
          <mxGeometry relative="1" as="geometry">
            <mxPoint x="1110" y="780" as="sourcePoint" />
            <mxPoint x="1270" y="780" as="targetPoint" />
          </mxGeometry>
        </mxCell>
        <mxCell id="GzMsUE32m4eeHW1KoEyY-32" value="" style="endArrow=none;html=1;rounded=0;exitX=0.5;exitY=1;exitDx=0;exitDy=0;entryX=0.5;entryY=0;entryDx=0;entryDy=0;" edge="1" parent="1" source="GzMsUE32m4eeHW1KoEyY-4" target="GzMsUE32m4eeHW1KoEyY-1">
          <mxGeometry relative="1" as="geometry">
            <mxPoint x="1110" y="780" as="sourcePoint" />
            <mxPoint x="1270" y="780" as="targetPoint" />
          </mxGeometry>
        </mxCell>
        <mxCell id="GzMsUE32m4eeHW1KoEyY-33" value="" style="endArrow=none;html=1;rounded=0;entryX=0.5;entryY=1;entryDx=0;entryDy=0;exitX=0.5;exitY=0;exitDx=0;exitDy=0;" edge="1" parent="1" source="GzMsUE32m4eeHW1KoEyY-1" target="GzMsUE32m4eeHW1KoEyY-3">
          <mxGeometry relative="1" as="geometry">
            <mxPoint x="1110" y="780" as="sourcePoint" />
            <mxPoint x="1270" y="780" as="targetPoint" />
          </mxGeometry>
        </mxCell>
        <mxCell id="GzMsUE32m4eeHW1KoEyY-34" value="" style="endArrow=none;html=1;rounded=0;entryX=0.5;entryY=1;entryDx=0;entryDy=0;exitX=0.75;exitY=0;exitDx=0;exitDy=0;" edge="1" parent="1" source="GzMsUE32m4eeHW1KoEyY-1" target="GzMsUE32m4eeHW1KoEyY-2">
          <mxGeometry relative="1" as="geometry">
            <mxPoint x="1110" y="780" as="sourcePoint" />
            <mxPoint x="1270" y="780" as="targetPoint" />
          </mxGeometry>
        </mxCell>
        <mxCell id="GzMsUE32m4eeHW1KoEyY-35" value="Categories" style="rounded=1;arcSize=10;whiteSpace=wrap;html=1;align=center;fontFamily=Comic Sans MS;fontStyle=1" vertex="1" parent="1">
          <mxGeometry x="1620" y="500" width="100" height="40" as="geometry" />
        </mxCell>
        <mxCell id="GzMsUE32m4eeHW1KoEyY-36" value="id" style="ellipse;whiteSpace=wrap;html=1;align=center;fontStyle=4;fontFamily=Comic Sans MS;" vertex="1" parent="1">
          <mxGeometry x="1540" y="430" width="80" height="40" as="geometry" />
        </mxCell>
        <mxCell id="GzMsUE32m4eeHW1KoEyY-37" value="name" style="ellipse;whiteSpace=wrap;html=1;align=center;fontFamily=Comic Sans MS;" vertex="1" parent="1">
          <mxGeometry x="1630" y="430" width="80" height="40" as="geometry" />
        </mxCell>
        <mxCell id="GzMsUE32m4eeHW1KoEyY-38" value="parent_id" style="ellipse;whiteSpace=wrap;html=1;align=center;fontFamily=Comic Sans MS;" vertex="1" parent="1">
          <mxGeometry x="1720" y="430" width="90" height="40" as="geometry" />
        </mxCell>
        <mxCell id="GzMsUE32m4eeHW1KoEyY-39" value="" style="endArrow=none;html=1;rounded=0;exitX=0.5;exitY=1;exitDx=0;exitDy=0;entryX=0.25;entryY=0;entryDx=0;entryDy=0;" edge="1" parent="1" source="GzMsUE32m4eeHW1KoEyY-36" target="GzMsUE32m4eeHW1KoEyY-35">
          <mxGeometry relative="1" as="geometry">
            <mxPoint x="1450" y="560" as="sourcePoint" />
            <mxPoint x="1610" y="560" as="targetPoint" />
          </mxGeometry>
        </mxCell>
        <mxCell id="GzMsUE32m4eeHW1KoEyY-40" value="" style="endArrow=none;html=1;rounded=0;entryX=0.5;entryY=1;entryDx=0;entryDy=0;exitX=0.5;exitY=0;exitDx=0;exitDy=0;" edge="1" parent="1" source="GzMsUE32m4eeHW1KoEyY-35" target="GzMsUE32m4eeHW1KoEyY-37">
          <mxGeometry relative="1" as="geometry">
            <mxPoint x="1290" y="680" as="sourcePoint" />
            <mxPoint x="1450" y="680" as="targetPoint" />
          </mxGeometry>
        </mxCell>
        <mxCell id="GzMsUE32m4eeHW1KoEyY-41" value="" style="endArrow=none;html=1;rounded=0;entryX=0.5;entryY=1;entryDx=0;entryDy=0;exitX=0.75;exitY=0;exitDx=0;exitDy=0;" edge="1" parent="1" source="GzMsUE32m4eeHW1KoEyY-35" target="GzMsUE32m4eeHW1KoEyY-38">
          <mxGeometry relative="1" as="geometry">
            <mxPoint x="1290" y="680" as="sourcePoint" />
            <mxPoint x="1450" y="680" as="targetPoint" />
          </mxGeometry>
        </mxCell>
        <mxCell id="GzMsUE32m4eeHW1KoEyY-43" value="id" style="ellipse;whiteSpace=wrap;html=1;align=center;fontStyle=4;fontFamily=Comic Sans MS;" vertex="1" parent="1">
          <mxGeometry x="1610" y="680" width="80" height="40" as="geometry" />
        </mxCell>
        <mxCell id="GzMsUE32m4eeHW1KoEyY-44" value="article_id" style="ellipse;whiteSpace=wrap;html=1;align=center;fontFamily=Comic Sans MS;" vertex="1" parent="1">
          <mxGeometry x="1710" y="680" width="80" height="40" as="geometry" />
        </mxCell>
        <mxCell id="GzMsUE32m4eeHW1KoEyY-45" value="user_id" style="ellipse;whiteSpace=wrap;html=1;align=center;fontFamily=Comic Sans MS;" vertex="1" parent="1">
          <mxGeometry x="1810" y="680" width="90" height="40" as="geometry" />
        </mxCell>
        <mxCell id="GzMsUE32m4eeHW1KoEyY-46" value="" style="endArrow=none;html=1;rounded=0;exitX=0.5;exitY=1;exitDx=0;exitDy=0;entryX=0.23;entryY=-0.007;entryDx=0;entryDy=0;entryPerimeter=0;" edge="1" source="GzMsUE32m4eeHW1KoEyY-43" target="GzMsUE32m4eeHW1KoEyY-95" parent="1">
          <mxGeometry relative="1" as="geometry">
            <mxPoint x="1550" y="810" as="sourcePoint" />
            <mxPoint x="1745" y="750" as="targetPoint" />
          </mxGeometry>
        </mxCell>
        <mxCell id="GzMsUE32m4eeHW1KoEyY-47" value="" style="endArrow=none;html=1;rounded=0;entryX=0.5;entryY=1;entryDx=0;entryDy=0;exitX=0.5;exitY=0;exitDx=0;exitDy=0;" edge="1" source="GzMsUE32m4eeHW1KoEyY-95" target="GzMsUE32m4eeHW1KoEyY-44" parent="1">
          <mxGeometry relative="1" as="geometry">
            <mxPoint x="1770" y="750" as="sourcePoint" />
            <mxPoint x="1550" y="930" as="targetPoint" />
          </mxGeometry>
        </mxCell>
        <mxCell id="GzMsUE32m4eeHW1KoEyY-48" value="" style="endArrow=none;html=1;rounded=0;entryX=0.5;entryY=1;entryDx=0;entryDy=0;exitX=0.75;exitY=0;exitDx=0;exitDy=0;" edge="1" source="GzMsUE32m4eeHW1KoEyY-95" target="GzMsUE32m4eeHW1KoEyY-45" parent="1">
          <mxGeometry relative="1" as="geometry">
            <mxPoint x="1795" y="750" as="sourcePoint" />
            <mxPoint x="1550" y="930" as="targetPoint" />
          </mxGeometry>
        </mxCell>
        <mxCell id="GzMsUE32m4eeHW1KoEyY-49" value="comment_text" style="ellipse;whiteSpace=wrap;html=1;align=center;fontFamily=Comic Sans MS;" vertex="1" parent="1">
          <mxGeometry x="1630" y="830" width="95" height="40" as="geometry" />
        </mxCell>
        <mxCell id="GzMsUE32m4eeHW1KoEyY-50" value="created_at" style="ellipse;whiteSpace=wrap;html=1;align=center;fontFamily=Comic Sans MS;" vertex="1" parent="1">
          <mxGeometry x="1920" y="695" width="95" height="40" as="geometry" />
        </mxCell>
        <mxCell id="GzMsUE32m4eeHW1KoEyY-51" value="is_active" style="ellipse;whiteSpace=wrap;html=1;align=center;fontFamily=Comic Sans MS;" vertex="1" parent="1">
          <mxGeometry x="1845" y="820" width="95" height="40" as="geometry" />
        </mxCell>
        <mxCell id="GzMsUE32m4eeHW1KoEyY-52" value="parent_id" style="ellipse;whiteSpace=wrap;html=1;align=center;fontFamily=Comic Sans MS;" vertex="1" parent="1">
          <mxGeometry x="1750" y="830" width="95" height="40" as="geometry" />
        </mxCell>
        <mxCell id="GzMsUE32m4eeHW1KoEyY-53" value="" style="endArrow=none;html=1;rounded=0;entryX=0;entryY=0.5;entryDx=0;entryDy=0;exitX=1;exitY=0.5;exitDx=0;exitDy=0;" edge="1" parent="1" source="GzMsUE32m4eeHW1KoEyY-95" target="GzMsUE32m4eeHW1KoEyY-50">
          <mxGeometry relative="1" as="geometry">
            <mxPoint x="1820" y="770" as="sourcePoint" />
            <mxPoint x="1670" y="830" as="targetPoint" />
          </mxGeometry>
        </mxCell>
        <mxCell id="GzMsUE32m4eeHW1KoEyY-54" value="" style="endArrow=none;html=1;rounded=0;entryX=0;entryY=0;entryDx=0;entryDy=0;exitX=0.75;exitY=1;exitDx=0;exitDy=0;" edge="1" parent="1" source="GzMsUE32m4eeHW1KoEyY-95" target="GzMsUE32m4eeHW1KoEyY-51">
          <mxGeometry relative="1" as="geometry">
            <mxPoint x="1820" y="770" as="sourcePoint" />
            <mxPoint x="1670" y="830" as="targetPoint" />
          </mxGeometry>
        </mxCell>
        <mxCell id="GzMsUE32m4eeHW1KoEyY-55" value="" style="endArrow=none;html=1;rounded=0;entryX=0.5;entryY=1;entryDx=0;entryDy=0;exitX=0.5;exitY=0;exitDx=0;exitDy=0;" edge="1" parent="1" source="GzMsUE32m4eeHW1KoEyY-52" target="GzMsUE32m4eeHW1KoEyY-95">
          <mxGeometry relative="1" as="geometry">
            <mxPoint x="1510" y="830" as="sourcePoint" />
            <mxPoint x="1795" y="790" as="targetPoint" />
          </mxGeometry>
        </mxCell>
        <mxCell id="GzMsUE32m4eeHW1KoEyY-56" value="" style="endArrow=none;html=1;rounded=0;entryX=0.25;entryY=1;entryDx=0;entryDy=0;exitX=0.5;exitY=0;exitDx=0;exitDy=0;" edge="1" parent="1" source="GzMsUE32m4eeHW1KoEyY-49" target="GzMsUE32m4eeHW1KoEyY-95">
          <mxGeometry relative="1" as="geometry">
            <mxPoint x="1510" y="830" as="sourcePoint" />
            <mxPoint x="1770" y="790" as="targetPoint" />
          </mxGeometry>
        </mxCell>
        <mxCell id="GzMsUE32m4eeHW1KoEyY-57" value="Relationship" style="shape=rhombus;double=1;perimeter=rhombusPerimeter;whiteSpace=wrap;html=1;align=center;fontFamily=Comic Sans MS;fontStyle=1" vertex="1" parent="1">
          <mxGeometry x="465" y="30" width="120" height="60" as="geometry" />
        </mxCell>
        <mxCell id="GzMsUE32m4eeHW1KoEyY-58" value="Tags" style="rounded=1;arcSize=10;whiteSpace=wrap;html=1;align=center;fontFamily=Comic Sans MS;fontStyle=1" vertex="1" parent="1">
          <mxGeometry x="1320" y="505" width="100" height="40" as="geometry" />
        </mxCell>
        <mxCell id="GzMsUE32m4eeHW1KoEyY-59" value="id" style="ellipse;whiteSpace=wrap;html=1;align=center;fontStyle=4;fontFamily=Comic Sans MS;" vertex="1" parent="1">
          <mxGeometry x="1270" y="440" width="80" height="40" as="geometry" />
        </mxCell>
        <mxCell id="GzMsUE32m4eeHW1KoEyY-60" value="name" style="ellipse;whiteSpace=wrap;html=1;align=center;fontFamily=Comic Sans MS;" vertex="1" parent="1">
          <mxGeometry x="1380" y="440" width="80" height="40" as="geometry" />
        </mxCell>
        <mxCell id="GzMsUE32m4eeHW1KoEyY-62" value="" style="endArrow=none;html=1;rounded=0;exitX=0.5;exitY=1;exitDx=0;exitDy=0;entryX=0.25;entryY=0;entryDx=0;entryDy=0;" edge="1" source="GzMsUE32m4eeHW1KoEyY-59" target="GzMsUE32m4eeHW1KoEyY-58" parent="1">
          <mxGeometry relative="1" as="geometry">
            <mxPoint x="1150" y="565" as="sourcePoint" />
            <mxPoint x="1310" y="565" as="targetPoint" />
          </mxGeometry>
        </mxCell>
        <mxCell id="GzMsUE32m4eeHW1KoEyY-63" value="" style="endArrow=none;html=1;rounded=0;entryX=0.5;entryY=1;entryDx=0;entryDy=0;exitX=0.5;exitY=0;exitDx=0;exitDy=0;" edge="1" source="GzMsUE32m4eeHW1KoEyY-58" target="GzMsUE32m4eeHW1KoEyY-60" parent="1">
          <mxGeometry relative="1" as="geometry">
            <mxPoint x="990" y="685" as="sourcePoint" />
            <mxPoint x="1150" y="685" as="targetPoint" />
          </mxGeometry>
        </mxCell>
        <mxCell id="GzMsUE32m4eeHW1KoEyY-65" value="User_Roles" style="rounded=1;arcSize=10;whiteSpace=wrap;html=1;align=center;fontFamily=Comic Sans MS;fontStyle=1" vertex="1" parent="1">
          <mxGeometry x="1015" y="410" width="100" height="40" as="geometry" />
        </mxCell>
        <mxCell id="GzMsUE32m4eeHW1KoEyY-66" value="id" style="ellipse;whiteSpace=wrap;html=1;align=center;fontStyle=4;fontFamily=Comic Sans MS;" vertex="1" parent="1">
          <mxGeometry x="895" y="350" width="80" height="40" as="geometry" />
        </mxCell>
        <mxCell id="GzMsUE32m4eeHW1KoEyY-67" value="user_id" style="ellipse;whiteSpace=wrap;html=1;align=center;fontFamily=Comic Sans MS;" vertex="1" parent="1">
          <mxGeometry x="965" y="320" width="80" height="40" as="geometry" />
        </mxCell>
        <mxCell id="GzMsUE32m4eeHW1KoEyY-68" value="role_id" style="ellipse;whiteSpace=wrap;html=1;align=center;fontFamily=Comic Sans MS;" vertex="1" parent="1">
          <mxGeometry x="1065" y="320" width="90" height="40" as="geometry" />
        </mxCell>
        <mxCell id="GzMsUE32m4eeHW1KoEyY-69" value="assigned_at" style="ellipse;whiteSpace=wrap;html=1;align=center;fontFamily=Comic Sans MS;" vertex="1" parent="1">
          <mxGeometry x="1155" y="340" width="90" height="40" as="geometry" />
        </mxCell>
        <mxCell id="GzMsUE32m4eeHW1KoEyY-70" value="" style="endArrow=none;html=1;rounded=0;exitX=1;exitY=1;exitDx=0;exitDy=0;entryX=0.25;entryY=0;entryDx=0;entryDy=0;" edge="1" source="GzMsUE32m4eeHW1KoEyY-66" target="GzMsUE32m4eeHW1KoEyY-65" parent="1">
          <mxGeometry relative="1" as="geometry">
            <mxPoint x="865" y="490" as="sourcePoint" />
            <mxPoint x="1025" y="490" as="targetPoint" />
          </mxGeometry>
        </mxCell>
        <mxCell id="GzMsUE32m4eeHW1KoEyY-71" value="" style="endArrow=none;html=1;rounded=0;exitX=0.5;exitY=1;exitDx=0;exitDy=0;entryX=0.5;entryY=0;entryDx=0;entryDy=0;" edge="1" source="GzMsUE32m4eeHW1KoEyY-67" target="GzMsUE32m4eeHW1KoEyY-65" parent="1">
          <mxGeometry relative="1" as="geometry">
            <mxPoint x="865" y="490" as="sourcePoint" />
            <mxPoint x="1025" y="490" as="targetPoint" />
          </mxGeometry>
        </mxCell>
        <mxCell id="GzMsUE32m4eeHW1KoEyY-72" value="" style="endArrow=none;html=1;rounded=0;entryX=0.5;entryY=1;entryDx=0;entryDy=0;exitX=0.5;exitY=0;exitDx=0;exitDy=0;" edge="1" source="GzMsUE32m4eeHW1KoEyY-65" target="GzMsUE32m4eeHW1KoEyY-68" parent="1">
          <mxGeometry relative="1" as="geometry">
            <mxPoint x="865" y="490" as="sourcePoint" />
            <mxPoint x="1025" y="490" as="targetPoint" />
          </mxGeometry>
        </mxCell>
        <mxCell id="GzMsUE32m4eeHW1KoEyY-73" value="" style="endArrow=none;html=1;rounded=0;entryX=0;entryY=1;entryDx=0;entryDy=0;exitX=0.75;exitY=0;exitDx=0;exitDy=0;" edge="1" source="GzMsUE32m4eeHW1KoEyY-65" target="GzMsUE32m4eeHW1KoEyY-69" parent="1">
          <mxGeometry relative="1" as="geometry">
            <mxPoint x="865" y="490" as="sourcePoint" />
            <mxPoint x="1025" y="490" as="targetPoint" />
          </mxGeometry>
        </mxCell>
        <mxCell id="GzMsUE32m4eeHW1KoEyY-74" value="User_logs" style="rounded=1;arcSize=10;whiteSpace=wrap;html=1;align=center;fontFamily=Comic Sans MS;fontStyle=1" vertex="1" parent="1">
          <mxGeometry x="245" y="840" width="100" height="40" as="geometry" />
        </mxCell>
        <mxCell id="GzMsUE32m4eeHW1KoEyY-75" value="id" style="ellipse;whiteSpace=wrap;html=1;align=center;fontStyle=4;fontFamily=Comic Sans MS;" vertex="1" parent="1">
          <mxGeometry x="165" y="770" width="80" height="40" as="geometry" />
        </mxCell>
        <mxCell id="GzMsUE32m4eeHW1KoEyY-76" value="action" style="ellipse;whiteSpace=wrap;html=1;align=center;fontFamily=Comic Sans MS;" vertex="1" parent="1">
          <mxGeometry x="255" y="770" width="80" height="40" as="geometry" />
        </mxCell>
        <mxCell id="GzMsUE32m4eeHW1KoEyY-77" value="user_id" style="ellipse;whiteSpace=wrap;html=1;align=center;fontFamily=Comic Sans MS;" vertex="1" parent="1">
          <mxGeometry x="345" y="770" width="90" height="40" as="geometry" />
        </mxCell>
        <mxCell id="GzMsUE32m4eeHW1KoEyY-78" value="" style="endArrow=none;html=1;rounded=0;exitX=0.5;exitY=1;exitDx=0;exitDy=0;entryX=0.25;entryY=0;entryDx=0;entryDy=0;" edge="1" source="GzMsUE32m4eeHW1KoEyY-75" target="GzMsUE32m4eeHW1KoEyY-74" parent="1">
          <mxGeometry relative="1" as="geometry">
            <mxPoint x="75" y="900" as="sourcePoint" />
            <mxPoint x="235" y="900" as="targetPoint" />
          </mxGeometry>
        </mxCell>
        <mxCell id="GzMsUE32m4eeHW1KoEyY-79" value="" style="endArrow=none;html=1;rounded=0;entryX=0.5;entryY=1;entryDx=0;entryDy=0;exitX=0.5;exitY=0;exitDx=0;exitDy=0;" edge="1" source="GzMsUE32m4eeHW1KoEyY-74" target="GzMsUE32m4eeHW1KoEyY-76" parent="1">
          <mxGeometry relative="1" as="geometry">
            <mxPoint x="-85" y="1020" as="sourcePoint" />
            <mxPoint x="75" y="1020" as="targetPoint" />
          </mxGeometry>
        </mxCell>
        <mxCell id="GzMsUE32m4eeHW1KoEyY-80" value="" style="endArrow=none;html=1;rounded=0;entryX=0.5;entryY=1;entryDx=0;entryDy=0;exitX=0.75;exitY=0;exitDx=0;exitDy=0;" edge="1" source="GzMsUE32m4eeHW1KoEyY-74" target="GzMsUE32m4eeHW1KoEyY-77" parent="1">
          <mxGeometry relative="1" as="geometry">
            <mxPoint x="-85" y="1020" as="sourcePoint" />
            <mxPoint x="75" y="1020" as="targetPoint" />
          </mxGeometry>
        </mxCell>
        <mxCell id="GzMsUE32m4eeHW1KoEyY-81" value="metadata" style="ellipse;whiteSpace=wrap;html=1;align=center;fontFamily=Comic Sans MS;" vertex="1" parent="1">
          <mxGeometry x="155" y="920" width="95" height="40" as="geometry" />
        </mxCell>
        <mxCell id="GzMsUE32m4eeHW1KoEyY-82" value="target_type" style="ellipse;whiteSpace=wrap;html=1;align=center;fontFamily=Comic Sans MS;" vertex="1" parent="1">
          <mxGeometry x="405" y="830" width="95" height="40" as="geometry" />
        </mxCell>
        <mxCell id="GzMsUE32m4eeHW1KoEyY-83" value="target_id" style="ellipse;whiteSpace=wrap;html=1;align=center;fontFamily=Comic Sans MS;" vertex="1" parent="1">
          <mxGeometry x="375" y="890" width="95" height="40" as="geometry" />
        </mxCell>
        <mxCell id="GzMsUE32m4eeHW1KoEyY-84" value="Date" style="ellipse;whiteSpace=wrap;html=1;align=center;fontFamily=Comic Sans MS;" vertex="1" parent="1">
          <mxGeometry x="275" y="920" width="95" height="40" as="geometry" />
        </mxCell>
        <mxCell id="GzMsUE32m4eeHW1KoEyY-85" value="" style="endArrow=none;html=1;rounded=0;entryX=0;entryY=0.5;entryDx=0;entryDy=0;exitX=1;exitY=0.5;exitDx=0;exitDy=0;" edge="1" source="GzMsUE32m4eeHW1KoEyY-74" target="GzMsUE32m4eeHW1KoEyY-82" parent="1">
          <mxGeometry relative="1" as="geometry">
            <mxPoint x="35" y="920" as="sourcePoint" />
            <mxPoint x="195" y="920" as="targetPoint" />
          </mxGeometry>
        </mxCell>
        <mxCell id="GzMsUE32m4eeHW1KoEyY-86" value="" style="endArrow=none;html=1;rounded=0;entryX=0;entryY=0;entryDx=0;entryDy=0;exitX=1;exitY=0.5;exitDx=0;exitDy=0;" edge="1" source="GzMsUE32m4eeHW1KoEyY-74" target="GzMsUE32m4eeHW1KoEyY-83" parent="1">
          <mxGeometry relative="1" as="geometry">
            <mxPoint x="35" y="920" as="sourcePoint" />
            <mxPoint x="195" y="920" as="targetPoint" />
          </mxGeometry>
        </mxCell>
        <mxCell id="GzMsUE32m4eeHW1KoEyY-87" value="" style="endArrow=none;html=1;rounded=0;entryX=0.75;entryY=1;entryDx=0;entryDy=0;exitX=0.5;exitY=0;exitDx=0;exitDy=0;" edge="1" source="GzMsUE32m4eeHW1KoEyY-84" target="GzMsUE32m4eeHW1KoEyY-74" parent="1">
          <mxGeometry relative="1" as="geometry">
            <mxPoint x="35" y="920" as="sourcePoint" />
            <mxPoint x="195" y="920" as="targetPoint" />
          </mxGeometry>
        </mxCell>
        <mxCell id="GzMsUE32m4eeHW1KoEyY-88" value="" style="endArrow=none;html=1;rounded=0;entryX=0.5;entryY=1;entryDx=0;entryDy=0;exitX=0.5;exitY=0;exitDx=0;exitDy=0;" edge="1" source="GzMsUE32m4eeHW1KoEyY-81" target="GzMsUE32m4eeHW1KoEyY-74" parent="1">
          <mxGeometry relative="1" as="geometry">
            <mxPoint x="35" y="920" as="sourcePoint" />
            <mxPoint x="195" y="920" as="targetPoint" />
          </mxGeometry>
        </mxCell>
        <mxCell id="GzMsUE32m4eeHW1KoEyY-89" value="Device" style="ellipse;whiteSpace=wrap;html=1;align=center;fontFamily=Comic Sans MS;" vertex="1" parent="1">
          <mxGeometry x="90" y="990" width="110" height="40" as="geometry" />
        </mxCell>
        <mxCell id="GzMsUE32m4eeHW1KoEyY-90" value="IP_Address" style="ellipse;whiteSpace=wrap;html=1;align=center;fontFamily=Comic Sans MS;" vertex="1" parent="1">
          <mxGeometry x="205" y="990" width="110" height="40" as="geometry" />
        </mxCell>
        <mxCell id="GzMsUE32m4eeHW1KoEyY-91" value="" style="endArrow=none;html=1;rounded=0;exitX=0.5;exitY=0;exitDx=0;exitDy=0;entryX=0.5;entryY=1;entryDx=0;entryDy=0;" edge="1" parent="1" source="GzMsUE32m4eeHW1KoEyY-89" target="GzMsUE32m4eeHW1KoEyY-81">
          <mxGeometry relative="1" as="geometry">
            <mxPoint x="160" y="1020" as="sourcePoint" />
            <mxPoint x="320" y="1020" as="targetPoint" />
          </mxGeometry>
        </mxCell>
        <mxCell id="GzMsUE32m4eeHW1KoEyY-92" value="" style="endArrow=none;html=1;rounded=0;exitX=0.5;exitY=1;exitDx=0;exitDy=0;entryX=0.5;entryY=0;entryDx=0;entryDy=0;" edge="1" parent="1" source="GzMsUE32m4eeHW1KoEyY-81" target="GzMsUE32m4eeHW1KoEyY-90">
          <mxGeometry relative="1" as="geometry">
            <mxPoint x="160" y="1020" as="sourcePoint" />
            <mxPoint x="320" y="1020" as="targetPoint" />
          </mxGeometry>
        </mxCell>
        <mxCell id="GzMsUE32m4eeHW1KoEyY-95" value="Comments" style="shape=ext;margin=3;double=1;whiteSpace=wrap;html=1;align=center;fontFamily=Comic Sans MS;fontStyle=1" vertex="1" parent="1">
          <mxGeometry x="1720" y="750" width="100" height="40" as="geometry" />
        </mxCell>
        <mxCell id="GzMsUE32m4eeHW1KoEyY-97" value="id" style="ellipse;whiteSpace=wrap;html=1;align=center;fontStyle=4;fontFamily=Comic Sans MS;" vertex="1" parent="1">
          <mxGeometry x="2090" y="675" width="80" height="40" as="geometry" />
        </mxCell>
        <mxCell id="GzMsUE32m4eeHW1KoEyY-98" value="comment_id" style="ellipse;whiteSpace=wrap;html=1;align=center;fontFamily=Comic Sans MS;" vertex="1" parent="1">
          <mxGeometry x="2180" y="675" width="80" height="40" as="geometry" />
        </mxCell>
        <mxCell id="GzMsUE32m4eeHW1KoEyY-99" value="user_id" style="ellipse;whiteSpace=wrap;html=1;align=center;fontFamily=Comic Sans MS;" vertex="1" parent="1">
          <mxGeometry x="2270" y="675" width="90" height="40" as="geometry" />
        </mxCell>
        <mxCell id="GzMsUE32m4eeHW1KoEyY-100" value="" style="endArrow=none;html=1;rounded=0;exitX=0.5;exitY=1;exitDx=0;exitDy=0;entryX=0.23;entryY=-0.007;entryDx=0;entryDy=0;entryPerimeter=0;" edge="1" source="GzMsUE32m4eeHW1KoEyY-97" target="GzMsUE32m4eeHW1KoEyY-111" parent="1">
          <mxGeometry relative="1" as="geometry">
            <mxPoint x="2000" y="805" as="sourcePoint" />
            <mxPoint x="2195" y="745" as="targetPoint" />
          </mxGeometry>
        </mxCell>
        <mxCell id="GzMsUE32m4eeHW1KoEyY-101" value="" style="endArrow=none;html=1;rounded=0;entryX=0.5;entryY=1;entryDx=0;entryDy=0;exitX=0.5;exitY=0;exitDx=0;exitDy=0;" edge="1" source="GzMsUE32m4eeHW1KoEyY-111" target="GzMsUE32m4eeHW1KoEyY-98" parent="1">
          <mxGeometry relative="1" as="geometry">
            <mxPoint x="2220" y="745" as="sourcePoint" />
            <mxPoint x="2000" y="925" as="targetPoint" />
          </mxGeometry>
        </mxCell>
        <mxCell id="GzMsUE32m4eeHW1KoEyY-102" value="" style="endArrow=none;html=1;rounded=0;entryX=0.5;entryY=1;entryDx=0;entryDy=0;exitX=0.75;exitY=0;exitDx=0;exitDy=0;" edge="1" source="GzMsUE32m4eeHW1KoEyY-111" target="GzMsUE32m4eeHW1KoEyY-99" parent="1">
          <mxGeometry relative="1" as="geometry">
            <mxPoint x="2245" y="745" as="sourcePoint" />
            <mxPoint x="2000" y="925" as="targetPoint" />
          </mxGeometry>
        </mxCell>
        <mxCell id="GzMsUE32m4eeHW1KoEyY-104" value="created_at" style="ellipse;whiteSpace=wrap;html=1;align=center;fontFamily=Comic Sans MS;" vertex="1" parent="1">
          <mxGeometry x="2330" y="735" width="95" height="40" as="geometry" />
        </mxCell>
        <mxCell id="GzMsUE32m4eeHW1KoEyY-107" value="" style="endArrow=none;html=1;rounded=0;entryX=0;entryY=0.5;entryDx=0;entryDy=0;exitX=1;exitY=0.5;exitDx=0;exitDy=0;" edge="1" source="GzMsUE32m4eeHW1KoEyY-111" target="GzMsUE32m4eeHW1KoEyY-104" parent="1">
          <mxGeometry relative="1" as="geometry">
            <mxPoint x="2270" y="765" as="sourcePoint" />
            <mxPoint x="2120" y="825" as="targetPoint" />
          </mxGeometry>
        </mxCell>
        <mxCell id="GzMsUE32m4eeHW1KoEyY-111" value="Comments_Likes" style="shape=ext;margin=3;double=1;whiteSpace=wrap;html=1;align=center;fontFamily=Comic Sans MS;fontStyle=1" vertex="1" parent="1">
          <mxGeometry x="2150" y="745" width="120" height="40" as="geometry" />
        </mxCell>
        <mxCell id="GzMsUE32m4eeHW1KoEyY-112" value="Images" style="rounded=1;arcSize=10;whiteSpace=wrap;html=1;align=center;fontFamily=Comic Sans MS;fontStyle=1" vertex="1" parent="1">
          <mxGeometry x="2080" y="395" width="100" height="40" as="geometry" />
        </mxCell>
        <mxCell id="GzMsUE32m4eeHW1KoEyY-113" value="id" style="ellipse;whiteSpace=wrap;html=1;align=center;fontStyle=4;fontFamily=Comic Sans MS;" vertex="1" parent="1">
          <mxGeometry x="1980" y="320" width="80" height="40" as="geometry" />
        </mxCell>
        <mxCell id="GzMsUE32m4eeHW1KoEyY-114" value="file_url" style="ellipse;whiteSpace=wrap;html=1;align=center;fontFamily=Comic Sans MS;" vertex="1" parent="1">
          <mxGeometry x="2085" y="310" width="80" height="40" as="geometry" />
        </mxCell>
        <mxCell id="GzMsUE32m4eeHW1KoEyY-115" value="associated_id" style="ellipse;whiteSpace=wrap;html=1;align=center;fontFamily=Comic Sans MS;" vertex="1" parent="1">
          <mxGeometry x="2190" y="320" width="90" height="40" as="geometry" />
        </mxCell>
        <mxCell id="GzMsUE32m4eeHW1KoEyY-117" value="" style="endArrow=none;html=1;rounded=0;exitX=1;exitY=1;exitDx=0;exitDy=0;entryX=0.25;entryY=0;entryDx=0;entryDy=0;" edge="1" source="GzMsUE32m4eeHW1KoEyY-113" target="GzMsUE32m4eeHW1KoEyY-112" parent="1">
          <mxGeometry relative="1" as="geometry">
            <mxPoint x="1930" y="475" as="sourcePoint" />
            <mxPoint x="2090" y="475" as="targetPoint" />
          </mxGeometry>
        </mxCell>
        <mxCell id="GzMsUE32m4eeHW1KoEyY-118" value="" style="endArrow=none;html=1;rounded=0;exitX=0.5;exitY=1;exitDx=0;exitDy=0;entryX=0.45;entryY=0;entryDx=0;entryDy=0;entryPerimeter=0;" edge="1" source="GzMsUE32m4eeHW1KoEyY-114" target="GzMsUE32m4eeHW1KoEyY-112" parent="1">
          <mxGeometry relative="1" as="geometry">
            <mxPoint x="1930" y="475" as="sourcePoint" />
            <mxPoint x="2090" y="475" as="targetPoint" />
          </mxGeometry>
        </mxCell>
        <mxCell id="GzMsUE32m4eeHW1KoEyY-119" value="" style="endArrow=none;html=1;rounded=0;entryX=0.5;entryY=1;entryDx=0;entryDy=0;exitX=0.5;exitY=0;exitDx=0;exitDy=0;" edge="1" source="GzMsUE32m4eeHW1KoEyY-112" target="GzMsUE32m4eeHW1KoEyY-115" parent="1">
          <mxGeometry relative="1" as="geometry">
            <mxPoint x="1930" y="475" as="sourcePoint" />
            <mxPoint x="2090" y="475" as="targetPoint" />
          </mxGeometry>
        </mxCell>
        <mxCell id="GzMsUE32m4eeHW1KoEyY-121" value="metadata" style="ellipse;whiteSpace=wrap;html=1;align=center;fontFamily=Comic Sans MS;" vertex="1" parent="1">
          <mxGeometry x="2080" y="480" width="100" height="40" as="geometry" />
        </mxCell>
        <mxCell id="GzMsUE32m4eeHW1KoEyY-122" value="resolution" style="ellipse;whiteSpace=wrap;html=1;align=center;fontFamily=Comic Sans MS;" vertex="1" parent="1">
          <mxGeometry x="2255" y="550" width="95" height="40" as="geometry" />
        </mxCell>
        <mxCell id="GzMsUE32m4eeHW1KoEyY-123" value="format" style="ellipse;whiteSpace=wrap;html=1;align=center;fontFamily=Comic Sans MS;" vertex="1" parent="1">
          <mxGeometry x="2130" y="550" width="110" height="40" as="geometry" />
        </mxCell>
        <mxCell id="GzMsUE32m4eeHW1KoEyY-124" value="description" style="ellipse;whiteSpace=wrap;html=1;align=center;fontFamily=Comic Sans MS;" vertex="1" parent="1">
          <mxGeometry x="2010" y="550" width="110" height="40" as="geometry" />
        </mxCell>
        <mxCell id="GzMsUE32m4eeHW1KoEyY-125" value="alt" style="ellipse;whiteSpace=wrap;html=1;align=center;fontFamily=Comic Sans MS;" vertex="1" parent="1">
          <mxGeometry x="1910" y="550" width="80" height="40" as="geometry" />
        </mxCell>
        <mxCell id="GzMsUE32m4eeHW1KoEyY-127" value="size" style="ellipse;whiteSpace=wrap;html=1;align=center;fontFamily=Comic Sans MS;" vertex="1" parent="1">
          <mxGeometry x="1810" y="550" width="80" height="40" as="geometry" />
        </mxCell>
        <mxCell id="GzMsUE32m4eeHW1KoEyY-128" value="uploaded_by" style="ellipse;whiteSpace=wrap;html=1;align=center;fontFamily=Comic Sans MS;" vertex="1" parent="1">
          <mxGeometry x="2355" y="550" width="95" height="40" as="geometry" />
        </mxCell>
        <mxCell id="GzMsUE32m4eeHW1KoEyY-129" value="" style="endArrow=none;html=1;rounded=0;exitX=0.5;exitY=1;exitDx=0;exitDy=0;entryX=0.5;entryY=0;entryDx=0;entryDy=0;" edge="1" parent="1" source="GzMsUE32m4eeHW1KoEyY-112" target="GzMsUE32m4eeHW1KoEyY-121">
          <mxGeometry relative="1" as="geometry">
            <mxPoint x="2070" y="480" as="sourcePoint" />
            <mxPoint x="2230" y="480" as="targetPoint" />
          </mxGeometry>
        </mxCell>
        <mxCell id="GzMsUE32m4eeHW1KoEyY-130" value="" style="endArrow=none;html=1;rounded=0;exitX=0.5;exitY=0;exitDx=0;exitDy=0;entryX=0;entryY=0.5;entryDx=0;entryDy=0;" edge="1" parent="1" source="GzMsUE32m4eeHW1KoEyY-127" target="GzMsUE32m4eeHW1KoEyY-121">
          <mxGeometry relative="1" as="geometry">
            <mxPoint x="2070" y="480" as="sourcePoint" />
            <mxPoint x="2230" y="480" as="targetPoint" />
          </mxGeometry>
        </mxCell>
        <mxCell id="GzMsUE32m4eeHW1KoEyY-131" value="" style="endArrow=none;html=1;rounded=0;exitX=0.5;exitY=0;exitDx=0;exitDy=0;entryX=0;entryY=1;entryDx=0;entryDy=0;" edge="1" parent="1" source="GzMsUE32m4eeHW1KoEyY-125" target="GzMsUE32m4eeHW1KoEyY-121">
          <mxGeometry relative="1" as="geometry">
            <mxPoint x="2070" y="480" as="sourcePoint" />
            <mxPoint x="2230" y="480" as="targetPoint" />
          </mxGeometry>
        </mxCell>
        <mxCell id="GzMsUE32m4eeHW1KoEyY-132" value="" style="endArrow=none;html=1;rounded=0;entryX=0.5;entryY=0;entryDx=0;entryDy=0;exitX=0.307;exitY=0.964;exitDx=0;exitDy=0;exitPerimeter=0;" edge="1" parent="1" source="GzMsUE32m4eeHW1KoEyY-121" target="GzMsUE32m4eeHW1KoEyY-124">
          <mxGeometry relative="1" as="geometry">
            <mxPoint x="2070" y="480" as="sourcePoint" />
            <mxPoint x="2230" y="480" as="targetPoint" />
          </mxGeometry>
        </mxCell>
        <mxCell id="GzMsUE32m4eeHW1KoEyY-133" value="" style="endArrow=none;html=1;rounded=0;entryX=0.5;entryY=0;entryDx=0;entryDy=0;exitX=0.5;exitY=1;exitDx=0;exitDy=0;" edge="1" parent="1" source="GzMsUE32m4eeHW1KoEyY-121" target="GzMsUE32m4eeHW1KoEyY-123">
          <mxGeometry relative="1" as="geometry">
            <mxPoint x="2070" y="480" as="sourcePoint" />
            <mxPoint x="2230" y="480" as="targetPoint" />
          </mxGeometry>
        </mxCell>
        <mxCell id="GzMsUE32m4eeHW1KoEyY-134" value="" style="endArrow=none;html=1;rounded=0;entryX=0.5;entryY=0;entryDx=0;entryDy=0;exitX=1;exitY=1;exitDx=0;exitDy=0;" edge="1" parent="1" source="GzMsUE32m4eeHW1KoEyY-121" target="GzMsUE32m4eeHW1KoEyY-122">
          <mxGeometry relative="1" as="geometry">
            <mxPoint x="2070" y="480" as="sourcePoint" />
            <mxPoint x="2230" y="480" as="targetPoint" />
          </mxGeometry>
        </mxCell>
        <mxCell id="GzMsUE32m4eeHW1KoEyY-135" value="" style="endArrow=none;html=1;rounded=0;exitX=1;exitY=0.5;exitDx=0;exitDy=0;entryX=0.5;entryY=0;entryDx=0;entryDy=0;" edge="1" parent="1" source="GzMsUE32m4eeHW1KoEyY-121" target="GzMsUE32m4eeHW1KoEyY-128">
          <mxGeometry relative="1" as="geometry">
            <mxPoint x="2070" y="480" as="sourcePoint" />
            <mxPoint x="2230" y="480" as="targetPoint" />
          </mxGeometry>
        </mxCell>
        <mxCell id="GzMsUE32m4eeHW1KoEyY-145" value="Site_Settings" style="rounded=1;arcSize=10;whiteSpace=wrap;html=1;align=center;fontFamily=Comic Sans MS;fontStyle=1" vertex="1" parent="1">
          <mxGeometry x="205" y="390" width="100" height="40" as="geometry" />
        </mxCell>
        <mxCell id="GzMsUE32m4eeHW1KoEyY-146" value="id" style="ellipse;whiteSpace=wrap;html=1;align=center;fontStyle=4;fontFamily=Comic Sans MS;" vertex="1" parent="1">
          <mxGeometry x="85" y="330" width="80" height="40" as="geometry" />
        </mxCell>
        <mxCell id="GzMsUE32m4eeHW1KoEyY-147" value="setting_key" style="ellipse;whiteSpace=wrap;html=1;align=center;fontFamily=Comic Sans MS;" vertex="1" parent="1">
          <mxGeometry x="150" y="300" width="85" height="40" as="geometry" />
        </mxCell>
        <mxCell id="GzMsUE32m4eeHW1KoEyY-148" value="setting_value" style="ellipse;whiteSpace=wrap;html=1;align=center;fontFamily=Comic Sans MS;" vertex="1" parent="1">
          <mxGeometry x="255" y="300" width="90" height="40" as="geometry" />
        </mxCell>
        <mxCell id="GzMsUE32m4eeHW1KoEyY-149" value="created_at" style="ellipse;whiteSpace=wrap;html=1;align=center;fontFamily=Comic Sans MS;" vertex="1" parent="1">
          <mxGeometry x="345" y="320" width="90" height="40" as="geometry" />
        </mxCell>
        <mxCell id="GzMsUE32m4eeHW1KoEyY-150" value="" style="endArrow=none;html=1;rounded=0;exitX=1;exitY=1;exitDx=0;exitDy=0;entryX=0.25;entryY=0;entryDx=0;entryDy=0;" edge="1" source="GzMsUE32m4eeHW1KoEyY-146" target="GzMsUE32m4eeHW1KoEyY-145" parent="1">
          <mxGeometry relative="1" as="geometry">
            <mxPoint x="55" y="470" as="sourcePoint" />
            <mxPoint x="215" y="470" as="targetPoint" />
          </mxGeometry>
        </mxCell>
        <mxCell id="GzMsUE32m4eeHW1KoEyY-151" value="" style="endArrow=none;html=1;rounded=0;exitX=0.5;exitY=1;exitDx=0;exitDy=0;entryX=0.5;entryY=0;entryDx=0;entryDy=0;" edge="1" source="GzMsUE32m4eeHW1KoEyY-147" target="GzMsUE32m4eeHW1KoEyY-145" parent="1">
          <mxGeometry relative="1" as="geometry">
            <mxPoint x="55" y="470" as="sourcePoint" />
            <mxPoint x="215" y="470" as="targetPoint" />
          </mxGeometry>
        </mxCell>
        <mxCell id="GzMsUE32m4eeHW1KoEyY-152" value="" style="endArrow=none;html=1;rounded=0;entryX=0.5;entryY=1;entryDx=0;entryDy=0;exitX=0.5;exitY=0;exitDx=0;exitDy=0;" edge="1" source="GzMsUE32m4eeHW1KoEyY-145" target="GzMsUE32m4eeHW1KoEyY-148" parent="1">
          <mxGeometry relative="1" as="geometry">
            <mxPoint x="55" y="470" as="sourcePoint" />
            <mxPoint x="215" y="470" as="targetPoint" />
          </mxGeometry>
        </mxCell>
        <mxCell id="GzMsUE32m4eeHW1KoEyY-153" value="" style="endArrow=none;html=1;rounded=0;entryX=0;entryY=1;entryDx=0;entryDy=0;exitX=0.75;exitY=0;exitDx=0;exitDy=0;" edge="1" source="GzMsUE32m4eeHW1KoEyY-145" target="GzMsUE32m4eeHW1KoEyY-149" parent="1">
          <mxGeometry relative="1" as="geometry">
            <mxPoint x="55" y="470" as="sourcePoint" />
            <mxPoint x="215" y="470" as="targetPoint" />
          </mxGeometry>
        </mxCell>
        <mxCell id="GzMsUE32m4eeHW1KoEyY-154" value="updated_at" style="ellipse;whiteSpace=wrap;html=1;align=center;fontFamily=Comic Sans MS;" vertex="1" parent="1">
          <mxGeometry x="377.5" y="370" width="90" height="40" as="geometry" />
        </mxCell>
        <mxCell id="GzMsUE32m4eeHW1KoEyY-155" value="" style="endArrow=none;html=1;rounded=0;exitX=1;exitY=0.5;exitDx=0;exitDy=0;entryX=0;entryY=0.5;entryDx=0;entryDy=0;" edge="1" parent="1" source="GzMsUE32m4eeHW1KoEyY-145" target="GzMsUE32m4eeHW1KoEyY-154">
          <mxGeometry relative="1" as="geometry">
            <mxPoint x="390" y="460" as="sourcePoint" />
            <mxPoint x="550" y="460" as="targetPoint" />
          </mxGeometry>
        </mxCell>
      </root>
    </mxGraphModel>
  </diagram>
</mxfile>
